<svg width="27" height="30" viewBox="0 0 27 30" fill="none" xmlns="http://www.w3.org/2000/svg">
<path d="M20.7653 9.375V7.5C20.7653 3.36445 17.3779 0 13.2143 0C9.05061 0 5.66327 3.36445 5.66327 7.5V9.375H0V25.3125C0 27.9013 2.11293 30 4.71939 30H21.7092C24.3156 30 26.4286 27.9013 26.4286 25.3125V9.375H20.7653ZM9.43878 7.5C9.43878 5.43223 11.1324 3.75 13.2143 3.75C15.2961 3.75 16.9898 5.43223 16.9898 7.5V9.375H9.43878V7.5ZM18.8776 14.5312C18.0956 14.5312 17.4617 13.9017 17.4617 13.125C17.4617 12.3483 18.0956 11.7188 18.8776 11.7188C19.6595 11.7188 20.2934 12.3483 20.2934 13.125C20.2934 13.9017 19.6595 14.5312 18.8776 14.5312ZM7.55102 14.5312C6.76908 14.5312 6.1352 13.9017 6.1352 13.125C6.1352 12.3483 6.76908 11.7188 7.55102 11.7188C8.33296 11.7188 8.96684 12.3483 8.96684 13.125C8.96684 13.9017 8.33296 14.5312 7.55102 14.5312Z" fill="#B53232"/>
</svg>
